<svg width="80" height="72" viewBox="0 0 80 72" fill="none" xmlns="http://www.w3.org/2000/svg">
<path d="M1.424 67V55.64H7.872V56.632H2.544V67H1.424ZM14.794 55.64H15.738L20.458 67H19.274L17.802 63.448H12.698L11.242 67H10.042L14.794 55.64ZM17.546 62.568L15.258 56.952L12.938 62.568H17.546ZM31.3665 67V56.632H26.7265L26.6625 59.032C26.6092 60.6 26.4972 61.9013 26.3265 62.936C26.1558 63.9707 25.9158 64.7867 25.6065 65.384C25.2972 65.9707 24.9132 66.392 24.4545 66.648C24.0065 66.8933 23.4785 67.016 22.8705 67.016V66.024C23.2865 66.024 23.6545 65.9173 23.9745 65.704C24.2945 65.4907 24.5665 65.1173 24.7905 64.584C25.0145 64.0507 25.1905 63.3147 25.3185 62.376C25.4572 61.4267 25.5478 60.2267 25.5905 58.776L25.6865 55.64H32.4705V67H31.3665ZM44.5435 66.008V67H36.9115V55.64H44.3995V56.632H38.0315V60.728H43.5835V61.672H38.0315V66.008H44.5435ZM48.2615 67V55.64H52.9655C53.4562 55.64 53.9042 55.7413 54.3095 55.944C54.7255 56.1467 55.0828 56.424 55.3815 56.776C55.6908 57.1173 55.9255 57.5013 56.0855 57.928C56.2562 58.344 56.3415 58.7707 56.3415 59.208C56.3415 59.8267 56.2028 60.4133 55.9255 60.968C55.6482 61.512 55.2642 61.9547 54.7735 62.296C54.2828 62.6373 53.7122 62.808 53.0615 62.808H49.3815V67H48.2615ZM49.3815 61.816H53.0135C53.4615 61.816 53.8508 61.6933 54.1815 61.448C54.5122 61.2027 54.7682 60.8827 54.9495 60.488C55.1308 60.0933 55.2215 59.6667 55.2215 59.208C55.2215 58.7387 55.1148 58.312 54.9015 57.928C54.6882 57.5333 54.4055 57.2187 54.0535 56.984C53.7122 56.7493 53.3335 56.632 52.9175 56.632H49.3815V61.816ZM67.4466 66.008V67H59.8146V55.64H67.3026V56.632H60.9346V60.728H66.4866V61.672H60.9346V66.008H67.4466ZM70.7806 67L73.8206 62.184C72.9993 62.0027 72.3646 61.6187 71.9166 61.032C71.4793 60.4347 71.2606 59.7307 71.2606 58.92C71.2606 58.312 71.41 57.7627 71.7086 57.272C72.018 56.7707 72.45 56.376 73.0046 56.088C73.5593 55.7893 74.2206 55.64 74.9886 55.64H78.5086V67H77.4046V62.328H75.3726C75.3086 62.328 75.2393 62.328 75.1646 62.328C75.1006 62.328 75.0366 62.328 74.9726 62.328L72.0606 67H70.7806ZM75.0366 61.352H77.4046V56.616H75.1006C74.3006 56.616 73.65 56.8293 73.1486 57.256C72.6473 57.672 72.3966 58.2267 72.3966 58.92C72.3966 59.624 72.6206 60.2053 73.0686 60.664C73.5166 61.1227 74.1726 61.352 75.0366 61.352Z" fill="white"/>
<line x1="11.7764" y1="40.5528" x2="39.7764" y2="26.5528" stroke="white"/>
<line y1="-0.5" x2="31.305" y2="-0.5" transform="matrix(-0.894427 -0.447214 -0.447214 0.894427 67 41)" stroke="white"/>
</svg>
